<?xml version="1.0" encoding="UTF-8" standalone="no"?>
<svg
   xmlns:dc="http://purl.org/dc/elements/1.1/"
   xmlns:cc="http://creativecommons.org/ns#"
   xmlns:rdf="http://www.w3.org/1999/02/22-rdf-syntax-ns#"
   xmlns:svg="http://www.w3.org/2000/svg"
   xmlns="http://www.w3.org/2000/svg"
   xmlns:sodipodi="http://sodipodi.sourceforge.net/DTD/sodipodi-0.dtd"
   xmlns:inkscape="http://www.inkscape.org/namespaces/inkscape"
   sodipodi:docname="mickey.svg"
   inkscape:version="1.0 (4035a4fb49, 2020-05-01)"
   id="svg8"
   version="1.1"
   viewBox="0 0 210 297"
   height="297mm"
   width="210mm">
  <defs
     id="defs2" />
  <sodipodi:namedview
     inkscape:window-maximized="1"
     inkscape:window-y="13"
     inkscape:window-x="-8"
     inkscape:window-height="987"
     inkscape:window-width="1680"
     showgrid="false"
     inkscape:document-rotation="0"
     inkscape:current-layer="layer1"
     inkscape:document-units="mm"
     inkscape:cy="362.73376"
     inkscape:cx="403.7301"
     inkscape:zoom="1.4"
     inkscape:pageshadow="2"
     inkscape:pageopacity="0.0"
     borderopacity="1.0"
     bordercolor="#666666"
     pagecolor="#ffffff"
     id="base" />
  <metadata
     id="metadata5">
    <rdf:RDF>
      <cc:Work
         rdf:about="">
        <dc:format>image/svg+xml</dc:format>
        <dc:type
           rdf:resource="http://purl.org/dc/dcmitype/StillImage" />
        <dc:title></dc:title>
      </cc:Work>
    </rdf:RDF>
  </metadata>
  <g
     id="layer1"
     inkscape:groupmode="layer"
     inkscape:label="Capa 1">
    <path
       id="path69"
       d="m 93.586905,102.14822 c -1.684281,-0.18738 -4.567643,-0.9739 -6.122657,-1.67014 -4.389827,-1.965495 -8.445014,-6.408807 -10.090636,-11.056425 -0.677247,-1.912699 -0.720041,-2.304812 -0.720041,-6.597684 0,-4.387083 -0.02053,-4.5642 -0.529166,-4.566084 -0.904668,-0.0033 -3.786726,-0.976821 -5.004045,-1.690217 -2.150484,-1.260268 -4.345473,-4.286943 -4.758831,-6.561963 -0.303811,-1.672095 -0.191761,-4.784209 0.21983,-6.105681 1.474427,-4.733852 5.103984,-8.540139 9.836941,-10.31592 1.266196,-0.475071 2.103577,-0.583615 4.468605,-0.579239 2.69362,0.005 3.038523,0.06594 4.630208,0.818257 2.15628,1.019181 4.073649,2.707805 4.877808,4.295878 0.818418,1.616234 1.472192,3.864906 1.472192,5.063645 v 0.966214 h 3.522615 3.522615 l 0.330017,-1.874132 c 0.82569,-4.688986 3.74046,-7.886374 8.24169,-9.040811 5.18571,-1.329986 11.76159,1.552305 15.04731,6.595432 1.47181,2.25901 2.16325,4.361306 2.33553,7.101009 0.12323,1.959706 0.055,2.549703 -0.46539,4.023747 -1.40948,3.992531 -4.83957,6.731754 -9.05471,7.230975 l -1.26461,0.149776 0.18455,0.954743 c 0.30944,1.600917 0.21876,6.951266 -0.14398,8.495372 -0.53911,2.294824 -2.50543,6.033852 -4.12496,7.843745 -2.82788,3.160275 -6.92394,5.560253 -10.524584,6.166613 -1.698151,0.28597 -4.81059,0.47257 -5.886301,0.35289 z m 6.321475,-3.016214 c 2.48975,-0.740349 4.20882,-1.632228 6.00419,-3.115066 5.41408,-4.471615 7.24605,-10.572785 5.39313,-17.961131 -0.2357,-0.93983 -0.4824,-1.849123 -0.54823,-2.02065 -0.0857,-0.223414 0.57242,-0.326265 2.32036,-0.362619 4.46066,-0.09277 6.80291,-1.292916 8.41079,-4.30959 0.79613,-1.493697 0.88371,-1.872906 0.87698,-3.797339 -0.009,-2.640972 -0.68458,-4.672604 -2.24206,-6.744669 -1.41477,-1.882197 -1.43602,-1.902962 -3.24258,-3.16846 -4.35266,-3.049048 -9.59253,-2.931933 -12.79359,0.285945 -1.89348,1.903437 -2.27704,3.157558 -2.10108,6.869891 0.13351,2.816985 0.12604,2.865168 -0.42758,2.755378 -0.30991,-0.06146 -1.43446,-0.299315 -2.499,-0.528568 -2.561611,-0.551653 -4.97882,-0.516485 -7.721764,0.112344 -1.236927,0.283569 -2.319379,0.518638 -2.40545,0.522373 -0.08607,0.0037 -0.0634,-0.558754 0.05037,-1.249978 0.832135,-5.055476 -0.634987,-8.426156 -4.488102,-10.311309 -1.988446,-0.972857 -5.240476,-1.000877 -7.444322,-0.06414 -4.180499,1.776902 -7.146083,5.023408 -8.208795,8.986389 -0.431404,1.608761 -0.152399,4.73628 0.544361,6.102045 1.563207,3.064138 3.6859,4.239224 7.995163,4.425988 1.564349,0.0678 2.844271,0.236969 2.844271,0.375933 0,0.138962 -0.259566,1.224997 -0.576813,2.41341 -0.422913,1.584235 -0.578853,2.937283 -0.584459,5.071166 -0.0088,3.368307 0.425351,5.159417 1.892133,7.805208 1.229545,2.217862 4.489588,5.45474 6.599973,6.553076 3.668838,1.909423 8.649095,2.455497 12.3521,1.354375 z"
       style="fill:#000000;stroke-width:0.264583" />
  </g>
</svg>
