<?xml version="1.0" encoding="UTF-8" standalone="no"?>
<svg
   xmlns:dc="http://purl.org/dc/elements/1.1/"
   xmlns:cc="http://creativecommons.org/ns#"
   xmlns:rdf="http://www.w3.org/1999/02/22-rdf-syntax-ns#"
   xmlns:svg="http://www.w3.org/2000/svg"
   xmlns="http://www.w3.org/2000/svg"
   xmlns:sodipodi="http://sodipodi.sourceforge.net/DTD/sodipodi-0.dtd"
   xmlns:inkscape="http://www.inkscape.org/namespaces/inkscape"
   sodipodi:docname="snoopy.svg"
   inkscape:version="1.0 (4035a4fb49, 2020-05-01)"
   id="svg8"
   version="1.1"
   viewBox="0 0 210 297"
   height="297mm"
   width="210mm">
  <defs
     id="defs2" />
  <sodipodi:namedview
     inkscape:window-maximized="1"
     inkscape:window-y="13"
     inkscape:window-x="-8"
     inkscape:window-height="987"
     inkscape:window-width="1680"
     showgrid="false"
     inkscape:document-rotation="0"
     inkscape:current-layer="layer1"
     inkscape:document-units="mm"
     inkscape:cy="385.43635"
     inkscape:cx="386.28317"
     inkscape:zoom="2.8"
     inkscape:pageshadow="2"
     inkscape:pageopacity="0.0"
     borderopacity="1.0"
     bordercolor="#666666"
     pagecolor="#ffffff"
     id="base" />
  <metadata
     id="metadata5">
    <rdf:RDF>
      <cc:Work
         rdf:about="">
        <dc:format>image/svg+xml</dc:format>
        <dc:type
           rdf:resource="http://purl.org/dc/dcmitype/StillImage" />
        <dc:title></dc:title>
      </cc:Work>
    </rdf:RDF>
  </metadata>
  <g
     id="layer1"
     inkscape:groupmode="layer"
     inkscape:label="Capa 1">
    <path
       id="path26"
       d="m 92.603704,104.69222 c -0.568959,-0.18197 -0.908726,-0.3993 -1.492431,-0.95462 -0.706841,-0.67248 -0.981094,-1.38848 -1.067939,-2.78812 -0.03562,-0.57402 -0.0094,-1.060278 0.08613,-1.597303 0.07553,-0.424633 0.120341,-0.79955 0.09958,-0.833149 -0.02077,-0.0336 -0.294509,-0.130589 -0.608319,-0.215534 -1.394227,-0.377399 -2.383031,-1.468419 -2.387873,-2.634715 -0.0036,-0.878581 0.52315,-1.494026 1.279398,-1.494691 0.417947,-3.47e-4 0.426311,-0.023 0.237948,-0.643925 -0.366613,-1.208504 0.03872,-3.649428 0.912788,-5.496809 0.511581,-1.081251 0.774275,-1.469057 1.719617,-2.538613 1.350658,-1.528129 1.971838,-2.535095 2.175105,-3.525961 0.132272,-0.644789 0.381699,-2.658824 0.335058,-2.705467 -0.132276,-0.132275 -1.212572,1.552744 -2.068684,3.226677 -0.317657,0.621107 -0.769281,1.500648 -1.003609,1.954534 -0.806652,1.562463 -1.978628,4.551477 -2.196907,5.602999 -0.05951,0.286665 -0.140144,0.618936 -0.179193,0.73838 -0.03905,0.119444 -0.09685,0.372183 -0.128452,0.561641 -0.117542,0.704748 -0.537689,1.175723 -1.048837,1.175723 -0.316179,0 -0.593301,-0.291516 -0.825787,-0.868682 -0.206274,-0.512092 -0.158513,-2.708754 0.08281,-3.808625 0.389498,-1.775208 1.281084,-3.874824 2.2512,-5.301403 0.970991,-1.427866 2.4698,-2.913179 3.81374,-3.779397 0.698239,-0.450041 3.0708,-1.649104 3.936795,-1.989609 2.594503,-1.020142 5.973198,-0.775488 8.773688,0.635312 1.75769,0.885466 2.88922,2.132932 4.4101,4.861956 0.95981,1.722242 1.32419,2.523243 1.92236,4.225836 0.47501,1.352016 0.67478,4.032349 0.40612,5.448885 -0.25344,1.336258 -0.78248,2.587815 -1.32192,3.127254 -0.20735,0.207351 -0.2971,0.23872 -0.57597,0.201315 -0.1817,-0.02437 -0.38249,-0.08758 -0.44622,-0.140468 -0.19728,-0.163729 -0.38921,-1.036075 -0.52698,-2.395203 -0.13526,-1.334469 -0.193,-1.809393 -0.42245,-3.474728 -0.0724,-0.525553 -0.15486,-1.190095 -0.18322,-1.47676 -0.12941,-1.308252 -0.33631,-2.786705 -0.39968,-2.855983 -0.15814,-0.172881 -0.29869,0.720163 -0.2991,1.900433 -4.4e-4,1.184412 0.009,1.249031 0.37709,2.475744 0.58364,1.9473 0.60463,3.492313 0.0633,4.659958 l -0.20715,0.446851 0.31529,0.204661 c 0.45509,0.295409 0.55454,0.535192 0.49922,1.203629 -0.11657,1.408361 -1.35802,2.836332 -2.76692,3.182614 l -0.58942,0.144871 0.0559,0.833727 c 0.13716,2.047045 -0.56142,3.303965 -2.3083,4.153235 -1.08704,0.52848 -2.09784,0.75358 -3.12959,0.69695 -0.939181,-0.0515 -1.308792,-0.17863 -1.968742,-0.67689 -0.563157,-0.42519 -0.721846,-0.71678 -0.721846,-1.32636 0,-0.5784 0.160171,-1.05064 0.561334,-1.65502 0.438377,-0.66044 1.45488,-1.813209 1.726742,-1.958213 0.127106,-0.06779 0.231102,-0.155749 0.231102,-0.195453 0,-0.0397 -0.50972,-0.07219 -1.13271,-0.07219 -1.218169,0 -2.64201,-0.125173 -3.107935,-0.273227 -0.284841,-0.09051 -0.49222,-0.03442 -0.305023,0.0825 0.235414,0.147036 0.833359,1.066794 1.082317,1.664813 0.228736,0.54945 0.278838,0.7993 0.314042,1.56608 0.03575,0.77862 0.01485,0.98864 -0.142613,1.43295 -0.371628,1.04863 -1.099587,1.43713 -2.678097,1.42925 -0.652719,-0.003 -1.084556,-0.0522 -1.42684,-0.16166 z m 2.373038,-0.50688 c 0.441003,-0.19508 0.898455,-0.68525 1.131781,-1.21272 0.145134,-0.3281 0.154836,-0.45256 0.07822,-1.0034 -0.121992,-0.87702 -0.38207,-1.66772 -0.749721,-2.279326 -0.437458,-0.727731 -0.559496,-0.83984 -1.572255,-1.444324 -0.492615,-0.294026 -0.963245,-0.60927 -1.045845,-0.700541 -0.142371,-0.157319 -0.142229,-0.178144 0.0027,-0.400433 0.394403,-0.604726 0.509525,-0.984766 0.472837,-1.560929 -0.03208,-0.503766 -0.06576,-0.590795 -0.314767,-0.813283 -0.207215,-0.185151 -0.366957,-0.249148 -0.621887,-0.249148 -0.407961,0 -0.563885,0.209013 -0.53463,0.716663 0.02548,0.442159 -0.14623,0.425474 -0.537685,-0.05225 -0.216395,-0.264081 -0.295252,-0.433428 -0.261654,-0.56191 0.03392,-0.129718 -0.0295,-0.261499 -0.215246,-0.447244 -0.309926,-0.309926 -0.460079,-0.325239 -0.846624,-0.08634 -0.353646,0.218565 -0.4517,0.572546 -0.260836,0.941634 0.290056,0.560907 0.153967,0.577473 -0.444341,0.05409 -0.476608,-0.416925 -0.732075,-0.479073 -1.051015,-0.255679 -0.172919,0.121118 -0.193065,0.209842 -0.193065,0.850276 0,0.568775 0.03998,0.794336 0.195453,1.102644 0.253329,0.502366 0.828348,0.886386 1.616433,1.079516 0.901069,0.220818 0.940068,0.263494 0.794672,0.869576 -0.162708,0.678242 -0.0016,2.205628 0.355938,3.375338 0.211675,0.69244 0.330038,0.92897 0.625541,1.25008 0.419273,0.4556 0.908874,0.78667 1.406885,0.95135 0.463955,0.15341 1.48813,0.0891 1.969069,-0.12364 z m 6.234428,0.0134 c 0.79373,-0.19297 1.79701,-0.69802 2.28227,-1.1489 0.54946,-0.51052 0.88393,-1.05875 1.11548,-1.82834 0.19122,-0.63558 0.19804,-0.99962 0.0376,-2.009361 -0.0654,-0.411661 0.0196,-0.504446 0.55537,-0.606045 1.03574,-0.196425 2.61007,-1.304698 2.98966,-2.104619 0.29061,-0.612427 0.11664,-1.372142 -0.31422,-1.372142 -0.2122,0 -0.84049,0.391961 -0.84049,0.524341 0,0.04605 -0.0564,0.08374 -0.12538,0.08374 -0.16777,0 -0.39583,-0.337695 -0.39583,-0.586123 0,-0.287856 -0.31801,-0.384697 -0.83963,-0.255688 l -0.41996,0.103864 v 0.624715 c 0,0.838005 -0.10611,0.932243 -0.53822,0.478 -0.46765,-0.491601 -0.7072,-0.53187 -1.34645,-0.22634 -0.49606,0.237094 -0.76481,0.533675 -0.76481,0.844001 0,0.06731 0.11396,0.348307 0.25325,0.624448 0.2735,0.542223 0.26901,0.700477 -0.0224,0.788689 -0.33617,0.101767 -1.56797,0.741847 -1.96749,1.022372 -0.2146,0.150678 -0.76187,0.645322 -1.21616,1.099208 -0.650366,0.64979 -0.893063,0.96376 -1.141513,1.47676 -0.405823,0.83793 -0.467302,1.18839 -0.287359,1.63811 0.14757,0.36882 0.585894,0.76433 0.978327,0.88278 0.394664,0.11912 1.409095,0.0921 2.007895,-0.0535 z m 0.19978,-6.016665 c 0.32182,-0.105773 0.68547,-0.278868 0.80812,-0.384656 l 0.22298,-0.192342 -0.19061,-0.528944 c -0.24355,-0.675803 -0.18134,-1.091553 0.21996,-1.470023 0.34822,-0.328414 0.81548,-0.476777 1.5016,-0.476777 h 0.52098 l 0.24463,-0.542926 c 0.32618,-0.723919 0.47111,-1.370264 0.47236,-2.106554 10e-4,-0.699912 -0.19185,-1.118493 -0.58471,-1.267862 -0.2139,-0.08132 -0.22274,-0.09983 -0.0846,-0.177128 0.21147,-0.118343 0.63356,-0.0607 0.60398,0.08247 -0.013,0.06283 0.0652,0.238742 0.17374,0.390907 0.16803,0.235573 0.19733,0.386328 0.19733,1.015043 0,0.406109 -0.0298,0.904515 -0.0662,1.10757 l -0.0662,0.36919 h 0.62056 c 0.59992,0 0.63038,0.0104 0.91536,0.312576 0.28611,0.303365 0.30114,0.308423 0.50992,0.171626 0.53144,-0.348214 0.90699,-1.321991 0.90704,-2.351869 3e-5,-0.655756 -0.25314,-1.672154 -0.60896,-2.44477 -0.5442,-1.18166 -0.69137,-1.735356 -0.69137,-2.601159 0,-0.942753 0.14306,-1.758621 0.52255,-2.980129 0.24719,-0.795636 0.27598,-1.001024 0.27899,-1.990135 0.004,-1.353335 -0.14252,-1.807806 -0.88458,-2.741607 -0.75821,-0.95412 -1.57606,-1.485115 -3.13109,-2.032858 -1.36436,-0.480585 -1.99139,-0.582692 -3.56159,-0.57998 -1.543377,0.0027 -2.354734,0.141162 -3.461434,0.590853 -0.764501,0.310645 -1.710627,0.954075 -1.959322,1.332472 -0.251947,0.383346 -0.39781,1.161179 -0.39876,2.126444 -0.0015,1.474275 -0.314305,2.70003 -0.924695,3.622928 -0.170121,0.257218 -0.784302,0.941305 -1.364849,1.520193 -0.580545,0.578888 -1.203058,1.269213 -1.383361,1.534053 -0.830003,1.219166 -1.612891,3.741437 -1.636179,5.271365 -0.01149,0.755039 0.03912,0.863123 0.318494,0.680074 0.430868,-0.282316 1.160207,-0.133535 1.770552,0.36118 0.249688,0.202385 0.286797,0.21363 0.225853,0.06844 -0.04011,-0.09556 -0.09122,-0.556578 -0.113582,-1.024496 -0.03467,-0.725455 -0.01254,-0.927878 0.150257,-1.374358 0.105003,-0.287978 0.169481,-0.579451 0.143285,-0.647716 -0.03526,-0.09188 0.025,-0.123773 0.231966,-0.122789 0.25799,0.0012 0.5891,0.128111 0.494251,0.1894 -0.0225,0.01454 -0.1191,0.06965 -0.214655,0.122465 -0.285136,0.157597 -0.504956,0.860937 -0.512983,1.64134 -0.01061,1.031374 0.03737,1.143607 0.489287,1.144487 0.704921,0.0014 1.528515,0.621911 1.709228,1.287822 0.160619,0.591862 0.113156,1.33634 -0.121605,1.907433 -0.239896,0.583586 -0.253894,0.558231 0.456986,0.827756 1.164092,0.441357 2.554727,0.601688 4.971977,0.573238 1.480489,-0.01743 1.767659,-0.04417 2.279069,-0.212251 z m -4.8493,-4.486395 c -0.556918,-0.150202 -1.022071,-0.422228 -1.20849,-0.706738 -0.07947,-0.121294 -0.165984,-0.428703 -0.192243,-0.683131 -0.04252,-0.411979 -0.02387,-0.486465 0.170408,-0.680748 0.341237,-0.341237 0.99967,-0.491667 2.152021,-0.491667 1.163176,0 1.660433,0.117827 2.156988,0.511106 0.447006,0.354034 0.651546,0.787377 0.577776,1.224054 -0.0656,0.388355 -0.20468,0.534369 -0.740318,0.777333 -0.324174,0.147044 -0.563833,0.175968 -1.431763,0.172797 -0.598215,-0.0022 -1.230751,-0.0546 -1.484379,-0.123006 z m 3.92441,-7.086096 c -0.27158,-0.322757 -0.29255,-0.749805 -0.0615,-1.252924 0.3335,-0.726251 0.85576,-0.900487 1.19832,-0.399778 0.37491,0.548005 0.19742,1.522479 -0.32667,1.793496 -0.36575,0.189137 -0.56108,0.15519 -0.81013,-0.140794 z m -3.25623,-0.418627 c -0.354005,-0.354005 -0.193093,-1.068671 0.341999,-1.518921 0.48872,-0.411229 0.976604,-0.375418 1.090926,0.08008 0.06712,0.267416 -0.248757,1.078846 -0.51869,1.332436 -0.298993,0.280888 -0.693803,0.326841 -0.914235,0.106408 z m 5.50063,-4.154127 c -0.36257,-0.618682 -1.02044,-1.240473 -1.31415,-1.24208 -0.13366,-6.95e-4 -0.30034,-0.03758 -0.37039,-0.08188 -0.1013,-0.06407 -0.0746,-0.100775 0.13031,-0.179427 0.57521,-0.220737 1.3381,0.154418 1.8443,0.906941 0.3465,0.51512 0.43639,0.822618 0.27107,0.927319 -0.22085,0.139863 -0.31928,0.08182 -0.56114,-0.330871 z m -6.338251,-0.290578 c -0.0817,-0.13219 0.303377,-0.68965 0.6023,-0.871929 0.46694,-0.284733 1.442427,-0.187204 1.442427,0.144214 0,0.114033 -0.03057,0.113669 -0.256291,-0.0031 -0.52427,-0.27111 -0.960379,-0.129279 -1.30197,0.423426 -0.194977,0.315479 -0.400995,0.44564 -0.486466,0.307345 z"
       style="fill:#000000;stroke-width:0.0868682" />
  </g>
</svg>
